<svg id="Layer_1" enable-background="new 0 0 512 512" height="512" viewBox="0 0 512 512" width="512" xmlns="http://www.w3.org/2000/svg"><g><path d="m504.47 151.433c0 14.13-11.46 25.59-25.59 25.59-3.67 0-7.16-.77-10.31-2.17-9-3.96-15.28-12.96-15.28-23.42s6.28-19.46 15.28-23.42c3.15-1.4 6.64-2.17 10.31-2.17 14.13 0 25.59 11.46 25.59 25.59z" fill="#ff6e6e"/><path d="m504.47 151.433c0 14.13-11.46 25.59-25.59 25.59-3.67 0-7.16-.77-10.31-2.17 9-3.96 15.28-12.96 15.28-23.42s-6.28-19.46-15.28-23.42c3.15-1.4 6.64-2.17 10.31-2.17 14.13 0 25.59 11.46 25.59 25.59z" fill="#f44e92"/><path d="m305.87 256c0 25.86-20.96 46.82-46.81 46.82-5.25 0-10.29-.86-15-2.46-18.5-6.24-31.82-23.75-31.82-44.36s13.32-38.12 31.82-44.36c4.71-1.6 9.75-2.46 15-2.46 25.85 0 46.81 20.96 46.81 46.82z" fill="#4f667a"/><path d="m305.87 256c0 25.86-20.96 46.82-46.81 46.82-5.25 0-10.29-.86-15-2.46 18.5-6.25 31.81-23.75 31.81-44.36s-13.31-38.11-31.81-44.36c4.71-1.6 9.75-2.46 15-2.46 25.85 0 46.81 20.96 46.81 46.82z" fill="#3a5366"/><path d="m58.86 341.18c0 14.13-11.46 25.59-25.59 25.59-3.67 0-7.16-.77-10.31-2.17-9-3.96-15.28-12.96-15.28-23.42s6.28-19.46 15.28-23.42c3.15-1.4 6.64-2.17 10.31-2.17 14.13 0 25.59 11.46 25.59 25.59z" fill="#b9f6d3"/><path d="m58.86 341.18c0 14.13-11.46 25.59-25.59 25.59-3.67 0-7.16-.77-10.31-2.17 9-3.96 15.28-12.96 15.28-23.42s-6.28-19.46-15.28-23.42c3.15-1.4 6.64-2.17 10.31-2.17 14.13 0 25.59 11.46 25.59 25.59z" fill="#93d8e4"/></g><g><path d="m259.057 201.684c-29.949 0-54.315 24.366-54.315 54.316s24.366 54.316 54.315 54.316c4.143 0 7.5-3.358 7.5-7.5s-3.357-7.5-7.5-7.5c-21.679 0-39.315-17.637-39.315-39.316s17.637-39.316 39.315-39.316 39.316 17.637 39.316 39.316c0 9.574-3.48 18.798-9.8 25.973-2.738 3.108-2.438 7.848.671 10.585 3.107 2.738 7.847 2.437 10.585-.671 8.734-9.916 13.544-22.661 13.544-35.887 0-29.95-24.366-54.316-54.316-54.316z"/><path d="m511.971 151.433c0-18.328-14.911-33.239-33.24-33.239-5.103 0-9.941 1.156-14.266 3.22-24.553-14.399-60.745-20.004-105.099-16.222-.824.07-1.65.144-2.478.221-3.356-9.9-7.063-19.336-11.108-28.233-22.631-49.77-53.429-77.18-86.723-77.18s-64.093 27.41-86.722 77.18c-4.043 8.892-7.748 18.323-11.103 28.216-10.404-.957-20.528-1.405-30.297-1.325-54.671.442-92.234 17.438-105.77 47.857-12.811 28.791-2.279 65.522 29.641 104.057-15.039 18.148-25.49 36.151-30.837 53.278-13.817 4.032-23.94 16.814-23.94 31.915 0 18.329 14.911 33.24 33.24 33.24.291 0 .58-.004.869-.011 18.227 21.752 52.997 33.531 98.996 33.531 2.291 0 4.612-.029 6.958-.088 6.886-.172 13.94-.596 21.133-1.264 3.356 9.9 7.063 19.337 11.109 28.234 22.629 49.77 53.428 77.18 86.722 77.18s64.093-27.41 86.723-77.18c4.043-8.892 7.749-18.324 11.103-28.218 9.623.886 19.006 1.336 28.09 1.336.736 0 1.473-.003 2.205-.009 54.672-.442 92.234-17.438 105.771-47.857 12.814-28.798 2.273-65.54-29.664-104.085 22.488-27.225 34.66-54.126 34.948-77.651 8.32-6.047 13.739-15.854 13.739-26.903zm-15 0c0 10.058-8.183 18.24-18.24 18.24s-18.239-8.182-18.239-18.24c0-10.057 8.182-18.239 18.239-18.239s18.24 8.182 18.24 18.239zm-310.982-68.045c20.052-44.1 46.001-68.388 73.068-68.388s53.016 24.288 73.068 68.388c3.423 7.528 6.594 15.467 9.504 23.767-26.56 3.597-54.406 10.243-82.584 19.677-28.268-9.461-56.161-16.115-82.553-19.695 2.908-8.293 6.077-16.226 9.497-23.749zm178.557 172.612c0 22.577-1.375 44.674-4.038 65.823-18.362 11.131-38.053 21.428-58.566 30.556-14.256 6.343-28.622 12.003-42.922 16.937-14.238-4.927-28.572-10.585-42.848-16.937-20.65-9.189-40.299-19.441-58.556-30.486-2.669-21.171-4.047-43.291-4.047-65.893 0-22.58 1.376-44.678 4.039-65.829 18.206-11.036 37.863-21.338 58.564-30.549 14.33-6.376 28.704-12.025 42.948-16.93 14.229 4.926 28.553 10.581 42.822 16.931 20.65 9.188 40.3 19.44 58.557 30.485 2.668 21.17 4.047 43.29 4.047 65.892zm12.213-55.604c26.044 17.241 48.692 36.08 66.624 55.604-2.461 2.676-5.029 5.358-7.704 8.042-16.495 16.557-36.488 32.617-58.912 47.476 1.836-18.026 2.778-36.618 2.778-55.518.001-18.93-.944-37.55-2.786-55.604zm-19.041 140.481c-2.911 17.373-6.724 33.967-11.388 49.497-20.505-2.616-42.031-7.203-63.993-13.617 8.587-3.315 17.166-6.876 25.703-10.675 17.2-7.653 33.854-16.117 49.678-25.205zm-122.021 35.859c-21.912 6.38-43.436 10.966-63.925 13.596-4.653-15.502-8.459-32.063-11.366-49.401 15.745 9.022 32.373 17.455 49.668 25.151 8.527 3.795 17.078 7.348 25.623 10.654zm-94.342-65.132c-26.063-17.254-48.724-36.107-66.663-55.646 17.593-19.099 40.292-38.016 66.655-55.482-1.836 18.028-2.779 36.623-2.779 55.525 0 18.929.946 37.55 2.787 55.603zm19.05-140.53c2.91-17.355 6.721-33.932 11.38-49.449 20.506 2.615 42.023 7.199 63.976 13.61-8.565 3.314-17.136 6.877-25.687 10.682-17.266 7.683-33.894 16.114-49.669 25.157zm147.634-25.157c-8.513-3.788-17.051-7.336-25.583-10.638 22.093-6.422 43.618-10.98 63.887-13.61 4.653 15.502 8.459 32.062 11.366 49.399-15.746-9.021-32.375-17.455-49.67-25.151zm-269.168 12.108c11.003-24.729 43.742-38.563 92.186-38.955 8.268-.072 16.806.255 25.566.967-5.557 19.05-9.896 39.554-12.925 61.043-21.621 13.526-41.344 28.203-58.54 43.634-7.351 6.597-14.129 13.23-20.311 19.864-26.938-33.167-36.165-63.655-25.976-86.553zm-23.842 183.153c0-10.058 8.183-18.24 18.24-18.24s18.239 8.182 18.239 18.24-8.182 18.24-18.239 18.24-18.24-8.182-18.24-18.24zm124.689 51.676c-40.83 1.027-72.005-7.142-89.386-23.159 9.684-5.816 16.177-16.422 16.177-28.517 0-16.01-11.378-29.413-26.472-32.547 5.011-13.387 13.456-27.307 24.775-41.265 20.986 22.576 47.908 44.198 78.889 63.567 3.028 21.474 7.362 41.965 12.915 61.003-5.738.472-11.376.78-16.898.918zm192.407 35.758c-20.053 44.1-46.002 68.388-73.068 68.388s-53.016-24.288-73.067-68.388c-3.425-7.532-6.597-15.474-9.508-23.778 26.397-3.598 54.333-10.264 82.539-19.683 28.286 9.469 56.196 16.128 82.604 19.71-2.91 8.294-6.079 16.227-9.5 23.751zm147.118-74.638c-11.004 24.729-43.743 38.564-92.187 38.956-8.264.073-16.802-.254-25.565-.966 5.563-19.068 9.904-39.594 12.934-61.106 27.597-17.279 52.123-36.395 71.881-56.228 2.395-2.404 4.712-4.812 6.951-7.219 26.946 33.17 36.176 63.663 25.986 86.563zm-25.982-109.386c-20.979-22.559-47.886-44.165-78.846-63.52-3.029-21.482-7.366-41.98-12.921-61.024 36.704-3.088 68.381.657 90.498 11.666-4.083 5.521-6.5 12.345-6.5 19.724 0 18.329 14.911 33.24 33.239 33.24 1.391 0 2.763-.086 4.109-.253-2.084 18.159-12.259 38.81-29.579 60.167z"/></g></svg>